<svg width="78" height="79" viewBox="0 0 78 79" fill="none" xmlns="http://www.w3.org/2000/svg">
<path d="M57.7945 38.6923V38.6673C56.062 40.1518 54.4345 41.5592 53.1212 42.6964V62.1205C53.1212 63.9614 51.6456 65.4559 49.8281 65.4559H28.8797C27.69 65.4559 26.5101 65.3301 25.3775 65.0991V58.9972V54.3026V53.7146C25.3678 52.529 24.4257 51.5844 23.2551 51.5844H12.0339C11.8053 50.4274 11.6816 49.2418 11.6816 48.0367V17.6913C11.6816 15.8598 13.1567 14.3658 14.9747 14.3658H49.8282C51.6458 14.3658 53.1213 15.8598 53.1213 17.6913V18.0284L53.1073 18.2754C53.1121 18.2707 53.1166 18.2666 53.1213 18.2614V18.2891C54.3394 16.9683 55.6341 15.7155 56.9567 14.5778C57.0046 14.5298 57.0618 14.4912 57.1092 14.4526C55.891 11.6185 53.0734 9.62329 49.8282 9.62329H14.9746C10.5773 9.62329 6.99899 13.2476 6.99899 17.6913V48.0367C6.99899 49.5504 7.16075 51.0735 7.45576 52.5482C9.23568 61.1853 15.8882 67.933 24.435 69.7356C25.8818 70.0346 27.3758 70.1885 28.8797 70.1885H49.8281C54.2253 70.1885 57.7945 66.5737 57.7945 62.1204V47.8401L57.8066 38.6821C57.8023 38.6852 57.7987 38.689 57.7945 38.6923Z" fill="url(#paint0_linear_5_146)"/>
<path d="M45.1763 43.2122C44.6028 42.7735 43.9034 42.1443 43.2073 41.4405C42.5111 40.7349 41.8894 40.0276 41.4566 39.4481C41.3656 39.3262 41.2461 39.1601 41.1281 38.9723C41.1146 38.9482 41.103 38.9327 41.0895 38.9074L41.0886 38.9082C41.0877 38.9063 41.0863 38.9049 41.0853 38.903C41.085 38.9034 41.0845 38.9039 41.0836 38.9053C41.0812 38.901 41.0788 38.8979 41.0766 38.8936C38.1906 41.7684 35.063 43.5772 32.6725 44.6387C32.4443 46.7774 31.9332 48.8791 31.4052 50.6291C31.3879 50.684 31.3712 50.7448 31.3541 50.799C31.3471 50.823 31.3396 50.8438 31.3327 50.8672C31.0013 51.9065 30.6667 52.7961 30.3902 53.4512C30.1918 53.4502 29.9849 53.5209 29.8238 53.6842C29.551 53.9605 29.518 54.3652 29.7159 54.6411C29.7276 54.6586 29.7364 54.6773 29.7471 54.6946C29.7499 54.6995 29.7504 54.704 29.7531 54.7088L29.754 54.7074C29.7554 54.7088 29.7559 54.7107 29.7573 54.7126L29.7591 54.7107C29.7624 54.7145 29.7633 54.7187 29.7665 54.7226L30.8493 53.6263C30.8404 53.617 30.8307 53.6089 30.8219 53.6005L35.9911 48.1562C35.7019 47.5696 35.8353 46.793 36.3693 46.2528C37.0205 45.5938 38.0196 45.5373 38.6005 46.1257C39.1819 46.714 39.1262 47.7251 38.4746 48.3841C37.9411 48.9244 37.1744 49.0594 36.5943 48.7672L33.416 51.8582L30.4408 54.7349L30.4589 54.7335L30.4454 54.7472C30.4562 54.7429 30.4677 54.7378 30.4794 54.7326L30.4957 54.7321L30.1509 55.0818L30.1492 55.0828V55.0832L30.136 55.0969C30.4033 55.367 30.8619 55.3402 31.1608 55.0385C31.3496 54.8473 31.4286 54.5936 31.3969 54.3639C33.2907 53.6317 36.6363 52.5016 40.0692 52.1263C41.0098 49.9593 42.5471 47.1955 44.8953 44.544C45.1556 44.2522 45.4206 43.9598 45.7016 43.6709C45.7156 43.6577 45.7267 43.6427 45.7411 43.6295C45.7411 43.6295 45.7407 43.629 45.7402 43.629C45.7416 43.6277 45.743 43.6262 45.7445 43.6248C45.7435 43.6238 45.7431 43.6234 45.7422 43.6229C45.7455 43.6196 45.7477 43.6169 45.751 43.6131C45.5188 43.4739 45.3185 43.3219 45.1763 43.2122Z" fill="url(#paint1_linear_5_146)"/>
<path d="M69.9861 14.4257L69.9196 14.3578C69.2413 13.6881 68.341 13.3341 67.3158 13.3341C66.7483 13.3341 66.1325 13.4413 65.4848 13.6523C63.797 14.202 61.7582 15.5016 59.4238 17.512C57.8089 18.9029 56.2549 20.4682 54.8077 22.1613C54.5308 22.4796 42.7387 36.458 42.2847 36.9786C41.4836 37.8399 42.2904 38.9225 42.5552 39.2779C42.8824 39.7161 43.349 40.2479 43.8695 40.7746C44.39 41.3017 44.9157 41.7739 45.3488 42.1047C45.6346 42.3236 46.1676 42.7303 46.7647 42.7299C47.0874 42.7303 47.375 42.6127 47.612 42.3873C48.014 42.0272 62.2756 29.7249 62.2756 29.7249C63.95 28.2582 65.496 26.6847 66.8712 25.0501C68.858 22.6882 70.141 20.6242 70.6848 18.916C71.4291 16.5759 70.7157 15.1822 69.9861 14.4257ZM50.5155 36.512L46.623 39.9791C46.3878 39.7862 46.0375 39.4779 45.5941 39.0293C45.1517 38.5818 44.8468 38.2264 44.6558 37.9883L48.0864 34.0519L50.3617 36.3554L50.5155 36.512Z" fill="url(#paint2_linear_5_146)"/>
<defs>
<linearGradient id="paint0_linear_5_146" x1="6.99899" y1="39.9059" x2="57.8066" y2="39.9059" gradientUnits="userSpaceOnUse">
<stop stop-color="#BF5331"/>
<stop offset="1" stop-color="#EF6A5A"/>
</linearGradient>
<linearGradient id="paint1_linear_5_146" x1="29.5894" y1="47.0884" x2="45.751" y2="47.0884" gradientUnits="userSpaceOnUse">
<stop stop-color="#BF5331"/>
<stop offset="1" stop-color="#EF6A5A"/>
</linearGradient>
<linearGradient id="paint2_linear_5_146" x1="41.9391" y1="28.032" x2="71" y2="28.032" gradientUnits="userSpaceOnUse">
<stop stop-color="#BF5331"/>
<stop offset="1" stop-color="#EF6A5A"/>
</linearGradient>
</defs>
</svg>
