<svg width="33" height="33" viewBox="0 0 33 33" fill="none" xmlns="http://www.w3.org/2000/svg">
<g clip-path="url(#clip0_5_103)">
<path d="M33 9.84631V9.83599H31.1815H31.1807V7.19896L30.0095 6.77092C27.9284 6.0098 25.746 5.62334 23.5194 5.62334C21.2927 5.62334 19.1104 6.0098 17.0293 6.77092L16.5 6.96409L15.9708 6.77099C13.8899 6.00986 11.7078 5.6234 9.48093 5.6234C7.25426 5.6234 5.07195 6.00986 2.99108 6.77099L1.81958 7.19902V9.83026V9.83606H0.0213984H0.0105703H0V25.6938C0 26.0485 0.287525 26.3358 0.642275 26.3358H14.9657L15.3852 27.3767H17.6148L18.0346 26.3358H32.358C32.7127 26.3358 33 26.0485 33 25.6938V9.89471V9.84631ZM17.6418 23.1574C17.6418 18.717 17.6448 14.2764 17.6418 9.83599V8.44471C19.5355 7.75209 21.5273 7.40714 23.5193 7.40714C25.5111 7.40714 27.5031 7.75203 29.3969 8.44471V9.83599V19.4556L29.3934 23.1597C27.5006 22.4678 25.5098 22.1234 23.5193 22.1234C21.7152 22.1234 19.912 22.4094 18.1808 22.9774C18.0006 23.0353 17.8205 23.0937 17.6418 23.1574ZM15.3585 9.83599V19.3551L15.355 23.1597C13.4622 22.4678 11.4717 22.1234 9.48093 22.1234C7.67746 22.1234 5.87484 22.4092 4.1444 22.9766C3.96361 23.0348 3.78282 23.0934 3.60338 23.1574V9.83599V8.44471C5.49714 7.75209 7.4892 7.40714 9.48093 7.40714C11.4729 7.40714 13.4647 7.75203 15.3585 8.44471V9.83599Z" fill="#8A8A8A"/>
</g>
<defs>
<clipPath id="clip0_5_103">
<rect width="33" height="33" fill="white"/>
</clipPath>
</defs>
</svg>
