<svg width="53" height="53" viewBox="0 0 53 53" fill="none" xmlns="http://www.w3.org/2000/svg">
<g clip-path="url(#clip0_5_325)">
<path d="M40.5898 25.7994C44.3334 25.7994 47.3681 22.5585 47.3681 18.5608C47.3681 14.563 44.3334 11.3221 40.5898 11.3221C36.8462 11.3221 33.8114 14.563 33.8114 18.5608C33.8114 22.5585 36.8462 25.7994 40.5898 25.7994Z" fill="white" stroke="url(#paint0_linear_5_325)" stroke-linecap="round" stroke-linejoin="round"/>
<path d="M46.9024 18.7212C46.9024 14.9094 44.0084 11.8181 40.437 11.8181C36.8656 11.8181 33.9715 14.9094 33.9715 18.7212C33.9715 22.533 36.8656 25.6243 40.437 25.6243C44.0084 25.6243 46.9024 22.533 46.9024 18.7212ZM47.6673 18.7212C47.6673 22.9862 44.4295 26.4424 40.437 26.4424C36.4444 26.4424 33.2067 22.9862 33.2067 18.7212C33.2067 14.4562 36.4444 11 40.437 11C44.4295 11 47.6673 14.4562 47.6673 18.7212Z" fill="url(#paint1_linear_5_325)" stroke="url(#paint2_linear_5_325)" stroke-linecap="round" stroke-linejoin="round"/>
<path d="M44.3301 25.8H36.6485C32.1434 25.8 28.4914 30.4741 28.4914 36.2405L28.3878 41.8858H52.385L52.4886 36.2405C52.4886 30.4741 48.8366 25.8 44.3315 25.8H44.3301Z" fill="white" stroke="url(#paint3_linear_5_325)" stroke-linecap="round" stroke-linejoin="round"/>
<path d="M44.3038 25.4767C49.0517 25.4767 52.7888 30.3551 52.7888 36.213C52.7888 36.2157 52.7888 36.2184 52.7887 36.2211L52.6858 41.8052C52.6817 42.0278 52.5111 42.2059 52.302 42.2059H28.4692C28.3661 42.2059 28.2673 42.1618 28.1951 42.0834C28.123 42.005 28.0834 41.8989 28.0855 41.7891L28.1884 36.205C28.1918 30.3507 31.9276 25.4767 36.6734 25.4767H44.3038ZM36.6734 26.2942C32.4729 26.2942 28.956 30.6628 28.956 36.213C28.956 36.2157 28.9559 36.2184 28.9559 36.2211L28.8606 41.3884H51.9257L52.0211 36.213L52.0205 36.0831C51.9661 30.5948 48.4714 26.2943 44.3038 26.2942H36.6734Z" fill="url(#paint4_linear_5_325)" stroke="url(#paint5_linear_5_325)" stroke-linecap="round" stroke-linejoin="round"/>
<path d="M32.3045 34.2486C32.3045 34.0243 32.4756 33.8424 32.6866 33.8424C32.8977 33.8424 33.0687 34.0243 33.0687 34.2486V41.3946H48.1096V34.2486C48.1096 34.0243 48.2807 33.8424 48.4917 33.8424C48.7028 33.8424 48.8739 34.0243 48.8739 34.2486V41.8008C48.8739 42.0252 48.7028 42.207 48.4917 42.207H32.6866C32.4756 42.207 32.3045 42.0252 32.3045 41.8008V34.2486Z" fill="url(#paint6_linear_5_325)" stroke="url(#paint7_linear_5_325)" stroke-linecap="round" stroke-linejoin="round"/>
<path d="M13.3526 25.7994C17.1794 25.7994 20.2816 22.5585 20.2816 18.5608C20.2816 14.563 17.1794 11.3221 13.3526 11.3221C9.52587 11.3221 6.42365 14.563 6.42365 18.5608C6.42365 22.5585 9.52587 25.7994 13.3526 25.7994Z" fill="white" stroke="url(#paint8_linear_5_325)" stroke-linecap="round" stroke-linejoin="round"/>
<path d="M19.817 18.7212C19.817 14.9094 16.923 11.8181 13.3516 11.8181C9.78018 11.8181 6.88612 14.9094 6.88612 18.7212C6.88612 22.533 9.78018 25.6243 13.3516 25.6243C16.923 25.6243 19.817 22.533 19.817 18.7212ZM20.5819 18.7212C20.5819 22.9862 17.3441 26.4424 13.3516 26.4424C9.35904 26.4424 6.12134 22.9862 6.12134 18.7212C6.12134 14.4562 9.35904 11 13.3516 11C17.3441 11 20.5819 14.4562 20.5819 18.7212Z" fill="url(#paint9_linear_5_325)" stroke="url(#paint10_linear_5_325)" stroke-linecap="round" stroke-linejoin="round"/>
<path d="M17.2447 25.8H9.56309C5.05802 25.8 1.40598 30.4741 1.40598 36.2405L1.30237 41.8858H25.2996L25.4032 36.2405C25.4032 30.4741 21.7512 25.8 17.2461 25.8H17.2447Z" fill="white" stroke="url(#paint11_linear_5_325)" stroke-linecap="round" stroke-linejoin="round"/>
<path d="M17.2184 25.4767C21.9663 25.4767 25.7034 30.3551 25.7034 36.213C25.7034 36.2157 25.7034 36.2184 25.7033 36.2211L25.6004 41.8052C25.5963 42.0278 25.4257 42.2059 25.2166 42.2059H1.38383C1.28073 42.2059 1.18193 42.1618 1.10975 42.0834C1.03757 42.005 0.998051 41.8989 1.00007 41.7891L1.103 36.205C1.10641 30.3507 4.84221 25.4767 9.58797 25.4767H17.2184ZM9.58797 26.2942C5.38748 26.2942 1.87058 30.6628 1.87058 36.213C1.87058 36.2157 1.87056 36.2184 1.87051 36.2211L1.77525 41.3884H24.8403L24.9357 36.2095C24.9342 30.661 21.418 26.2943 17.2184 26.2942H9.58797Z" fill="url(#paint12_linear_5_325)" stroke="url(#paint13_linear_5_325)" stroke-linecap="round" stroke-linejoin="round"/>
<path d="M4.91656 34.2475C4.91656 34.0231 5.08764 33.8412 5.29869 33.8412C5.50973 33.8412 5.68081 34.0231 5.68081 34.2475V41.3935H20.7217V34.2475C20.7217 34.0231 20.8928 33.8412 21.1038 33.8412C21.3148 33.8412 21.4859 34.0231 21.4859 34.2475V41.7997C21.4859 42.024 21.3148 42.2059 21.1038 42.2059H5.29869C5.08765 42.2059 4.91657 42.024 4.91656 41.7997V34.2475Z" fill="url(#paint14_linear_5_325)" stroke="url(#paint15_linear_5_325)" stroke-linecap="round" stroke-linejoin="round"/>
</g>
<defs>
<linearGradient id="paint0_linear_5_325" x1="33.8114" y1="18.5608" x2="47.3681" y2="18.5608" gradientUnits="userSpaceOnUse">
<stop stop-color="#BF5331"/>
<stop offset="1" stop-color="#EF6A5A"/>
</linearGradient>
<linearGradient id="paint1_linear_5_325" x1="33.2067" y1="18.7212" x2="47.6673" y2="18.7212" gradientUnits="userSpaceOnUse">
<stop stop-color="#BF5331"/>
<stop offset="1" stop-color="#EF6A5A"/>
</linearGradient>
<linearGradient id="paint2_linear_5_325" x1="33.2067" y1="18.7212" x2="47.6673" y2="18.7212" gradientUnits="userSpaceOnUse">
<stop stop-color="#BF5331"/>
<stop offset="1" stop-color="#EF6A5A"/>
</linearGradient>
<linearGradient id="paint3_linear_5_325" x1="28.3878" y1="33.8429" x2="52.4886" y2="33.8429" gradientUnits="userSpaceOnUse">
<stop stop-color="#BF5331"/>
<stop offset="1" stop-color="#EF6A5A"/>
</linearGradient>
<linearGradient id="paint4_linear_5_325" x1="28.0854" y1="33.8413" x2="52.7888" y2="33.8413" gradientUnits="userSpaceOnUse">
<stop stop-color="#BF5331"/>
<stop offset="1" stop-color="#EF6A5A"/>
</linearGradient>
<linearGradient id="paint5_linear_5_325" x1="28.0854" y1="33.8413" x2="52.7888" y2="33.8413" gradientUnits="userSpaceOnUse">
<stop stop-color="#BF5331"/>
<stop offset="1" stop-color="#EF6A5A"/>
</linearGradient>
<linearGradient id="paint6_linear_5_325" x1="32.3045" y1="38.0247" x2="48.8739" y2="38.0247" gradientUnits="userSpaceOnUse">
<stop stop-color="#BF5331"/>
<stop offset="1" stop-color="#EF6A5A"/>
</linearGradient>
<linearGradient id="paint7_linear_5_325" x1="32.3045" y1="38.0247" x2="48.8739" y2="38.0247" gradientUnits="userSpaceOnUse">
<stop stop-color="#BF5331"/>
<stop offset="1" stop-color="#EF6A5A"/>
</linearGradient>
<linearGradient id="paint8_linear_5_325" x1="6.42365" y1="18.5608" x2="20.2816" y2="18.5608" gradientUnits="userSpaceOnUse">
<stop stop-color="#BF5331"/>
<stop offset="1" stop-color="#EF6A5A"/>
</linearGradient>
<linearGradient id="paint9_linear_5_325" x1="6.12134" y1="18.7212" x2="20.5819" y2="18.7212" gradientUnits="userSpaceOnUse">
<stop stop-color="#BF5331"/>
<stop offset="1" stop-color="#EF6A5A"/>
</linearGradient>
<linearGradient id="paint10_linear_5_325" x1="6.12134" y1="18.7212" x2="20.5819" y2="18.7212" gradientUnits="userSpaceOnUse">
<stop stop-color="#BF5331"/>
<stop offset="1" stop-color="#EF6A5A"/>
</linearGradient>
<linearGradient id="paint11_linear_5_325" x1="1.30237" y1="33.8429" x2="25.4032" y2="33.8429" gradientUnits="userSpaceOnUse">
<stop stop-color="#BF5331"/>
<stop offset="1" stop-color="#EF6A5A"/>
</linearGradient>
<linearGradient id="paint12_linear_5_325" x1="1" y1="33.8413" x2="25.7034" y2="33.8413" gradientUnits="userSpaceOnUse">
<stop stop-color="#BF5331"/>
<stop offset="1" stop-color="#EF6A5A"/>
</linearGradient>
<linearGradient id="paint13_linear_5_325" x1="1" y1="33.8413" x2="25.7034" y2="33.8413" gradientUnits="userSpaceOnUse">
<stop stop-color="#BF5331"/>
<stop offset="1" stop-color="#EF6A5A"/>
</linearGradient>
<linearGradient id="paint14_linear_5_325" x1="4.91656" y1="38.0236" x2="21.4859" y2="38.0236" gradientUnits="userSpaceOnUse">
<stop stop-color="#BF5331"/>
<stop offset="1" stop-color="#EF6A5A"/>
</linearGradient>
<linearGradient id="paint15_linear_5_325" x1="4.91656" y1="38.0236" x2="21.4859" y2="38.0236" gradientUnits="userSpaceOnUse">
<stop stop-color="#BF5331"/>
<stop offset="1" stop-color="#EF6A5A"/>
</linearGradient>
<clipPath id="clip0_5_325">
<rect width="53" height="53" fill="white"/>
</clipPath>
</defs>
</svg>
