<svg width="53" height="53" viewBox="0 0 53 53" fill="none" xmlns="http://www.w3.org/2000/svg">
<g clip-path="url(#clip0_1_813)">
<path d="M28.7001 13.1617L51.088 20.083C51.3844 20.1742 51.6066 20.3083 51.7592 20.4737L51.8091 20.5372C51.9862 20.7598 52.0391 21.0084 51.9725 21.2748C51.9197 21.4822 51.7925 21.6781 51.5899 21.8524C51.3013 22.1054 50.8081 22.3594 50.1417 22.565L29.6493 28.9016C28.9252 29.1242 28.0935 29.2717 27.339 29.3272C26.5454 29.388 25.8027 29.3477 25.3027 29.193L2.91194 22.27C2.61838 22.1788 2.39625 22.0473 2.2436 21.8819C2.02441 21.6414 1.95493 21.3696 2.02734 21.0781C2.08018 20.8725 2.20739 20.6775 2.40701 20.5005C2.69862 20.2475 3.1918 19.9962 3.8572 19.7906L24.3506 13.4549C25.0747 13.2323 25.9064 13.0821 26.6609 13.0267C27.4545 12.9659 28.2001 13.0061 28.6992 13.1608L28.7001 13.1617ZM49.9861 21.1729L28.2256 14.4438C27.9232 14.3499 27.3909 14.3321 26.7832 14.3777C26.1344 14.4259 25.4299 14.5502 24.8281 14.738L4.3357 21.0736C4.21632 21.1094 4.11064 21.1443 4.01376 21.18L25.7743 27.9091C26.0796 28.003 26.609 28.0209 27.2167 27.9753C27.8655 27.927 28.57 27.8027 29.1718 27.6176L49.6642 21.2811C49.7836 21.2435 49.8893 21.2078 49.9861 21.172V21.1729Z" fill="url(#paint0_linear_1_813)"/>
<path d="M40.8692 24.4856C40.8692 24.1101 41.2019 23.8061 41.6129 23.8061C42.0239 23.8061 42.3566 24.1101 42.3566 24.4856V33.6449C42.3566 33.9131 42.1844 34.1438 41.9378 34.2556C36.7477 36.9951 31.6387 38.3667 26.5377 38.3667C21.4366 38.3667 16.3189 36.988 11.163 34.2279C10.9301 34.1009 10.797 33.8756 10.797 33.6449H10.7941V24.2219C10.7941 23.8464 11.1268 23.545 11.5378 23.545C11.9487 23.545 12.2814 23.8464 12.2814 24.2219V33.2578C17.0743 35.7595 21.8035 37.0112 26.5386 37.0112C31.2737 37.0112 36.0275 35.7568 40.8702 33.2524V24.4856H40.8692Z" fill="url(#paint1_linear_1_813)"/>
<path d="M13.5995 25.091C13.5995 24.7154 13.9322 24.4114 14.3432 24.4114C14.7542 24.4114 15.0869 24.7154 15.0869 25.091V37.376C15.0869 37.7515 14.7542 38.0555 14.3432 38.0555C13.9322 38.0555 13.5995 37.7515 13.5995 37.376V25.091Z" fill="url(#paint2_linear_1_813)"/>
<path d="M13.5946 36.6965H15.0927C15.4254 36.6965 15.7053 36.8968 15.8031 37.1703L17.2621 40.5715C17.4118 40.9185 17.223 41.3119 16.8404 41.4487C16.813 41.4585 16.7846 41.4665 16.7572 41.4746C15.9499 41.6999 15.1455 41.8144 14.3441 41.8144C13.5427 41.8144 12.7158 41.6981 11.8978 41.4648C11.5064 41.3557 11.2872 40.9784 11.4095 40.6207L11.4261 40.5724L12.9047 37.131C13.0182 36.8619 13.2991 36.7 13.5955 36.6974L13.5946 36.6965ZM14.5868 38.0546H14.0985L13.1112 40.348C13.5222 40.4186 13.9322 40.4544 14.3431 40.4544C14.7541 40.4544 15.1641 40.4186 15.5751 40.348L14.5878 38.0546H14.5868Z" fill="url(#paint3_linear_1_813)"/>
<path d="M14.5819 25.732C14.1935 25.851 13.7717 25.6614 13.6416 25.3065C13.5114 24.9542 13.7189 24.5688 14.1044 24.4499L26.7607 20.5364C27.1492 20.4148 27.571 20.6043 27.7011 20.9593C27.8313 21.3143 27.6238 21.6969 27.2383 21.8185L14.581 25.732H14.5819Z" fill="url(#paint4_linear_1_813)"/>
</g>
<defs>
<linearGradient id="paint0_linear_1_813" x1="1.99976" y1="21.1769" x2="52.0003" y2="21.1769" gradientUnits="userSpaceOnUse">
<stop stop-color="#BF5331"/>
<stop offset="1" stop-color="#EF6A5A"/>
</linearGradient>
<linearGradient id="paint1_linear_1_813" x1="10.7941" y1="30.9559" x2="42.3566" y2="30.9559" gradientUnits="userSpaceOnUse">
<stop stop-color="#BF5331"/>
<stop offset="1" stop-color="#EF6A5A"/>
</linearGradient>
<linearGradient id="paint2_linear_1_813" x1="13.5995" y1="31.2335" x2="15.0869" y2="31.2335" gradientUnits="userSpaceOnUse">
<stop stop-color="#BF5331"/>
<stop offset="1" stop-color="#EF6A5A"/>
</linearGradient>
<linearGradient id="paint3_linear_1_813" x1="11.3756" y1="39.2554" x2="17.3134" y2="39.2554" gradientUnits="userSpaceOnUse">
<stop stop-color="#BF5331"/>
<stop offset="1" stop-color="#EF6A5A"/>
</linearGradient>
<linearGradient id="paint4_linear_1_813" x1="13.6027" y1="23.1336" x2="27.74" y2="23.1336" gradientUnits="userSpaceOnUse">
<stop stop-color="#BF5331"/>
<stop offset="1" stop-color="#EF6A5A"/>
</linearGradient>
<clipPath id="clip0_1_813">
<rect width="50" height="28.8136" fill="white" transform="translate(2 12.9999)"/>
</clipPath>
</defs>
</svg>
